# xmcd
#
# Track frame offsets:
#	150
#	28054
#	52334
#	83455
#	103673
#	127237
#	152546
#	174797
#	203448
#	231051
#	263479
#	287819
#	320032
#
# Disc length: 4690 seconds
#
# Revision: 0
# Processed by: cddbd v1.4PL0 Copyright (c) Steve Scherf et al.
# Submitted via: audiograbber 1.81.02
#
DISCID=aa12500d
DTITLE=Various Artist - The Best In Chill [CD3)
DYEAR=2003
DGENRE=Ambient
TTITLE0=Airstream - Electra
TTITLE1=Skysurfer - Here Comes The Sun
TTITLE2=Patrick Marsh vs. Michael Steep - My Lovin´
TTITLE3=Richard Van Arp - Artico Purcente
TTITLE4=Emotional - Extatic Chill
TTITLE5=Mahoroba - World Colours
TTITLE6=Cyborg - Sounds
TTITLE7=Listening Deluxe - Guitar Dreams
TTITLE8=Jason Tyrello - Infinity, Eternity, Extacy
TTITLE9=Chillwalker - Weed
TTITLE10=Hypnotic - Past Present Future
TTITLE11=Skyway - Jamo
TTITLE12=In Credo - Kamasutra
EXTD=
EXTT0=
EXTT1=
EXTT2=
EXTT3=
EXTT4=
EXTT5=
EXTT6=
EXTT7=
EXTT8=
EXTT9=
EXTT10=
EXTT11=
EXTT12=
PLAYORDER=
